<svg width="260" height="61" viewBox="0 0 260 61" fill="none" xmlns="http://www.w3.org/2000/svg">
<g clip-path="url(#clip0_9_19147)">
<path d="M46.4416 34.4252C44.7911 26.1189 52.6753 21.2473 52.6753 21.2473C52.6753 21.2473 49.6035 16.8032 44.4411 15.6599C39.2811 14.5141 36.6986 15.9457 34.1212 17.0194C31.5412 18.0957 30.2538 18.0957 30.2538 18.0957C26.5307 18.0957 23.809 14.1537 16.7155 15.9483C11.8286 17.1816 6.68401 22.8231 5.75451 29.5562C4.82501 36.2919 6.83083 44.8866 10.6982 51.5477C14.5655 58.2139 18.505 60.7192 21.3012 60.7913C24.0974 60.8607 26.8886 58.7881 30.2538 58.2834C33.6217 57.7838 35.6944 59.5039 38.9979 60.4334C42.2884 61.3604 43.442 60.5004 47.2321 57.2767C51.0324 54.053 54.4724 44.8069 54.4724 44.8069C54.4724 44.8069 48.0921 42.7366 46.4416 34.4252Z" fill="white"/>
<path d="M39.1342 10.2862C42.7903 6.5606 41.5519 0.792969 41.5519 0.792969C41.5519 0.792969 36.4178 1.69418 32.9778 5.27312C29.5404 8.85469 30.1094 14.5115 30.1094 14.5115C30.1094 14.5115 35.4779 14.0095 39.1342 10.2862Z" fill="white"/>
</g>
<g clip-path="url(#clip1_9_19147)">
<path d="M100 33.6875V51.1642L124.951 54.7471V33.6875H100Z" fill="white"/>
<path d="M124.951 6.84277L100 10.4256V27.9023H124.951V6.84277Z" fill="white"/>
<path d="M160.001 27.9017V1.51367L130.742 5.71309V27.9017H160.001Z" fill="white"/>
<path d="M130.742 55.8761L160.001 60.0713V33.6875H130.742V55.8761Z" fill="white"/>
</g>
<g clip-path="url(#clip2_9_19147)">
<path d="M208.329 20.2285C207.295 20.2285 206.418 20.589 205.697 21.31C204.976 22.0311 204.615 22.8963 204.615 23.9061V39.4108C204.615 40.4459 204.976 41.3223 205.697 42.0434C206.418 42.7644 207.295 43.1251 208.329 43.1251C209.362 43.1251 210.234 42.7645 210.944 42.0434C211.652 41.3224 212.007 40.4459 212.007 39.4108V23.9061C212.007 22.8962 211.647 22.0311 210.926 21.31C210.204 20.589 209.339 20.2285 208.329 20.2285Z" fill="white"/>
<path d="M238.184 6.30932L240.744 1.58655C240.912 1.27388 240.852 1.03412 240.564 0.865524C240.251 0.720148 240.011 0.793813 239.843 1.08131L237.247 5.84184C234.963 4.83191 232.547 4.32602 229.999 4.32602C227.451 4.32602 225.035 4.83202 222.751 5.84184L220.155 1.08131C219.987 0.793813 219.746 0.720799 219.434 0.865524C219.145 1.03488 219.086 1.27388 219.254 1.58655L221.815 6.30932C219.219 7.63322 217.151 9.477 215.613 11.8447C214.074 14.2137 213.305 16.8024 213.305 19.6156H246.657C246.657 16.8031 245.888 14.2142 244.349 11.8447C242.811 9.477 240.755 7.63322 238.184 6.30932ZM223.382 13.1787C223.105 13.4562 222.775 13.5943 222.39 13.5943C222.005 13.5943 221.681 13.4562 221.417 13.1787C221.153 12.9025 221.02 12.5731 221.02 12.1874C221.02 11.803 221.153 11.473 221.417 11.1961C221.681 10.9199 222.006 10.7818 222.39 10.7818C222.775 10.7818 223.105 10.9199 223.382 11.1961C223.658 11.4736 223.797 11.803 223.797 12.1874C223.796 12.5724 223.658 12.9025 223.382 13.1787ZM238.58 13.1787C238.315 13.4562 237.99 13.5943 237.607 13.5943C237.221 13.5943 236.891 13.4562 236.615 13.1787C236.338 12.9025 236.2 12.5731 236.2 12.1874C236.2 11.803 236.338 11.473 236.615 11.1961C236.891 10.9199 237.221 10.7818 237.607 10.7818C237.991 10.7818 238.315 10.9199 238.58 11.1961C238.844 11.4736 238.976 11.803 238.976 12.1874C238.976 12.5724 238.844 12.9025 238.58 13.1787Z" fill="white"/>
<path d="M213.449 44.9267C213.449 46.0335 213.834 46.9704 214.602 47.7393C215.372 48.5082 216.309 48.8925 217.415 48.8925H220.083L220.12 57.0785C220.12 58.1122 220.48 58.99 221.201 59.7111C221.922 60.4323 222.788 60.7928 223.798 60.7928C224.831 60.7928 225.708 60.4323 226.429 59.7111C227.151 58.99 227.511 58.1123 227.511 57.0785V48.8933H232.487V57.0785C232.487 58.1122 232.847 58.99 233.568 59.7111C234.29 60.4323 235.166 60.7928 236.2 60.7928C237.234 60.7928 238.111 60.4323 238.832 59.7111C239.553 58.99 239.914 58.1123 239.914 57.0785V48.8933H242.618C243.7 48.8933 244.625 48.5088 245.395 47.74C246.164 46.9711 246.548 46.0342 246.548 44.9275V20.9121H213.449V44.9267Z" fill="white"/>
<path d="M251.67 20.2285C250.66 20.2285 249.795 20.5837 249.074 21.2921C248.353 22.0019 247.992 22.8737 247.992 23.9061V39.4108C247.992 40.4459 248.353 41.3223 249.074 42.0434C249.795 42.7645 250.661 43.1251 251.67 43.1251C252.703 43.1251 253.581 42.7645 254.302 42.0434C255.023 41.3223 255.383 40.4459 255.383 39.4108V23.9061C255.383 22.8736 255.023 22.0019 254.302 21.2921C253.581 20.5837 252.703 20.2285 251.67 20.2285Z" fill="white"/>
</g>
<defs>
<clipPath id="clip0_9_19147">
<rect width="60" height="60" fill="white" transform="translate(0 0.792969)"/>
</clipPath>
<clipPath id="clip1_9_19147">
<rect width="60" height="60" fill="white" transform="translate(100 0.792969)"/>
</clipPath>
<clipPath id="clip2_9_19147">
<rect width="60" height="60" fill="white" transform="translate(200 0.792969)"/>
</clipPath>
</defs>
</svg>
