<svg width="103" height="16" viewBox="0 0 103 16" fill="none" xmlns="http://www.w3.org/2000/svg">
<path d="M7.5 0.792969L9.18386 5.97534H14.6329L10.2245 9.17822L11.9084 14.3606L7.5 11.1577L3.09161 14.3606L4.77547 9.17822L0.367076 5.97534H5.81614L7.5 0.792969Z" fill="#FFE492"/>
<path d="M29.5 0.792969L31.1839 5.97534H36.6329L32.2245 9.17822L33.9084 14.3606L29.5 11.1577L25.0916 14.3606L26.7755 9.17822L22.3671 5.97534H27.8161L29.5 0.792969Z" fill="#FFE492"/>
<path d="M51.5 0.792969L53.1839 5.97534H58.6329L54.2245 9.17822L55.9084 14.3606L51.5 11.1577L47.0916 14.3606L48.7755 9.17822L44.3671 5.97534H49.8161L51.5 0.792969Z" fill="#FFE492"/>
<path d="M73.5 0.792969L75.1839 5.97534H80.6329L76.2245 9.17822L77.9084 14.3606L73.5 11.1577L69.0916 14.3606L70.7755 9.17822L66.3671 5.97534H71.8161L73.5 0.792969Z" fill="#FFE492"/>
<path d="M95.5 0.792969L97.1839 5.97534H102.633L98.2245 9.17822L99.9084 14.3606L95.5 11.1577L91.0916 14.3606L92.7755 9.17822L88.3671 5.97534H93.8161L95.5 0.792969Z" fill="#FFE492"/>
</svg>
