<svg width="19" height="20" viewBox="0 0 19 20" fill="none" xmlns="http://www.w3.org/2000/svg">
<path d="M9.48901 0.293945C9.14844 0.293945 8.80811 0.312254 8.46948 0.348752C8.1591 0.380455 7.85253 0.432449 7.55008 0.495538C7.49155 0.507783 7.43298 0.520702 7.37445 0.534216C5.59245 0.939937 3.96529 1.85105 2.68809 3.15829C2.56932 3.28003 2.45305 3.40538 2.33935 3.53429C-1.11075 7.49513 -0.696703 13.5029 3.26417 16.953C7.05619 20.256 12.7641 20.0362 16.291 16.4514C16.41 16.3297 16.5262 16.2044 16.6397 16.0754C18.1623 14.3415 19.0013 12.1124 19 9.80486C19 4.55208 14.7418 0.293906 9.48901 0.293945ZM3.11069 3.63384C3.16078 3.58184 3.21277 3.53207 3.26382 3.48166C3.32278 3.42364 3.38143 3.36531 3.44167 3.3092C3.49461 3.25974 3.54914 3.21218 3.60336 3.164C3.66454 3.10978 3.72541 3.05557 3.78819 3.00326C3.84335 2.95666 3.9001 2.91196 3.95653 2.86694C4.01994 2.81621 4.08334 2.76549 4.14865 2.71666C4.20635 2.67323 4.265 2.63107 4.32397 2.58985C4.3896 2.54293 4.45554 2.49474 4.52243 2.45099C4.58235 2.41041 4.6429 2.3711 4.70377 2.3321C4.77162 2.28867 4.83978 2.24587 4.90858 2.20529C4.97052 2.16832 5.03285 2.13194 5.09562 2.09623C5.16581 2.05629 5.23627 2.01729 5.30709 1.97925C5.37049 1.94544 5.4339 1.91235 5.4973 1.88002C5.56959 1.84356 5.6425 1.80837 5.71574 1.77381C5.77915 1.74369 5.84509 1.71357 5.9104 1.68504C5.9849 1.65334 6.06035 1.62164 6.13581 1.58993C6.20143 1.56298 6.26674 1.53667 6.333 1.51131C6.40972 1.48214 6.48739 1.45488 6.56507 1.42761C6.63133 1.40447 6.69759 1.38133 6.7648 1.35945C6.84374 1.33409 6.92331 1.31063 7.0032 1.28748C7.0701 1.26814 7.13636 1.24817 7.20357 1.2301C7.22925 1.22344 7.25493 1.21805 7.28061 1.2114C6.34219 2.12259 5.64579 3.25344 5.25446 4.50155C4.50198 4.30309 3.77352 4.02276 3.08216 3.66554C3.09262 3.65444 3.1015 3.64335 3.11069 3.63384ZM2.6548 4.14426C3.41635 4.55688 4.22391 4.87827 5.06075 5.10169C4.65051 6.52818 4.43517 8.00361 4.42066 9.48783H0.619454C0.688528 7.53059 1.40427 5.65147 2.6548 4.14426ZM2.6548 15.4655C1.40435 13.9582 0.688607 12.0791 0.619454 10.1219H4.42066C4.43517 11.6061 4.65047 13.0815 5.06075 14.508C4.22395 14.7315 3.41639 15.0529 2.6548 15.4655ZM7.20167 18.3809C7.13763 18.3647 7.07137 18.3438 7.00542 18.3245C6.92521 18.301 6.84469 18.2775 6.76543 18.2519C6.69854 18.2303 6.6326 18.2072 6.56665 18.184C6.48866 18.1571 6.41067 18.1295 6.33363 18.1C6.26769 18.075 6.2027 18.0486 6.13739 18.022C6.06162 17.9903 5.98585 17.9586 5.91071 17.9269C5.84604 17.8984 5.78168 17.869 5.71764 17.8388C5.64377 17.8039 5.57022 17.7684 5.49572 17.7316C5.43231 17.6999 5.36891 17.6682 5.3055 17.6336C5.23385 17.5953 5.16284 17.556 5.09182 17.5154C5.02841 17.4802 4.96818 17.4441 4.90699 17.4073C4.83724 17.3654 4.76877 17.3223 4.70029 17.2783C4.64005 17.2399 4.57981 17.2009 4.52053 17.161C4.453 17.1153 4.38611 17.0677 4.31985 17.0202C4.26183 16.9787 4.20381 16.9371 4.14675 16.8934C4.08112 16.8439 4.01677 16.7929 3.95273 16.7415C3.89661 16.6968 3.84081 16.6524 3.78597 16.6065C3.72256 16.5538 3.66137 16.499 3.59987 16.4445C3.54597 16.3966 3.49176 16.3494 3.43913 16.3005C3.37858 16.2441 3.31993 16.1854 3.26096 16.1274C3.20992 16.077 3.15793 16.0272 3.10784 15.9756C3.09864 15.9657 3.08977 15.9556 3.08057 15.9461C3.7719 15.5887 4.50036 15.3083 5.25287 15.1098C5.64429 16.3578 6.34065 17.4886 7.27902 18.3999C7.25334 18.3933 7.22735 18.3879 7.20167 18.3809ZM9.17202 18.6567C7.81544 18.464 6.62625 17.0481 5.87806 14.9573C6.95977 14.7151 8.06364 14.5851 9.17202 14.5695V18.6567ZM9.17202 13.9355C7.99623 13.9509 6.82539 14.0906 5.67896 14.3521C5.28089 12.9766 5.0709 11.5537 5.05473 10.1219H9.17202V13.9355ZM9.17202 9.48783H5.05473C5.07086 8.05608 5.28085 6.63308 5.67896 5.25767C6.82539 5.51911 7.99627 5.65876 9.17202 5.67425V9.48783ZM9.17202 5.04019C8.0636 5.02473 6.95977 4.89479 5.87806 4.65246C6.62625 2.56163 7.81544 1.14577 9.17202 0.953015V5.04019ZM16.3233 4.14426C17.5738 5.65151 18.2895 7.53063 18.3586 9.48783H14.5574C14.5429 8.00361 14.3276 6.52818 13.9174 5.10169C14.7542 4.87815 15.5617 4.5568 16.3233 4.14426ZM11.7739 1.22852C11.8405 1.245 11.9067 1.26593 11.9727 1.28526C12.0529 1.30872 12.1334 1.33219 12.2127 1.35786C12.2796 1.37942 12.3455 1.40257 12.4114 1.42571C12.4894 1.45266 12.5674 1.48024 12.6445 1.50972C12.7104 1.53477 12.7754 1.56108 12.8407 1.58771C12.9165 1.61942 12.9923 1.65112 13.0674 1.68282C13.1321 1.71136 13.1964 1.74072 13.2605 1.77096C13.3343 1.80583 13.4079 1.84134 13.4824 1.87811C13.5458 1.90982 13.6092 1.94152 13.6726 1.97608C13.7443 2.01444 13.8153 2.05375 13.8863 2.09433C13.9497 2.12952 14.0099 2.16566 14.0711 2.20244C14.1409 2.24429 14.2093 2.2874 14.2778 2.33147C14.3381 2.36983 14.3983 2.40883 14.4576 2.44877C14.5251 2.49442 14.5917 2.54166 14.6579 2.58922C14.7163 2.63075 14.7743 2.6726 14.8317 2.71603C14.897 2.76517 14.961 2.81621 15.0254 2.86757C15.0812 2.91196 15.1373 2.95634 15.1921 3.00263C15.2555 3.05525 15.3167 3.1101 15.3782 3.16463C15.4321 3.2125 15.4863 3.25974 15.539 3.30856C15.5995 3.36499 15.6582 3.42364 15.7171 3.48166C15.7682 3.53207 15.8202 3.58184 15.8703 3.63352C15.8795 3.64335 15.8883 3.65349 15.8975 3.663C15.2062 4.02038 14.4777 4.30083 13.7252 4.49933C13.3331 3.2511 12.6358 2.12037 11.6965 1.20949C11.7222 1.21615 11.7482 1.22154 11.7739 1.22852ZM9.80608 0.953015C11.1627 1.14577 12.3518 2.56163 13.1 4.65246C12.0183 4.89467 10.9145 5.02462 9.80608 5.04019V0.953015ZM9.80608 5.67425C10.9819 5.6588 12.1527 5.51915 13.2991 5.25767C13.6972 6.63308 13.9072 8.05608 13.9234 9.48783H9.80608V5.67425ZM9.80608 10.1219H13.9234C13.9072 11.5537 13.6973 12.9766 13.2991 14.3521C12.1527 14.0906 10.9819 13.951 9.80608 13.9355V10.1219ZM9.80608 18.6567V14.5695C10.9145 14.585 12.0183 14.7149 13.1 14.9573C12.3518 17.0481 11.1627 18.464 9.80608 18.6567ZM15.8674 15.9759C15.8173 16.0276 15.7656 16.0773 15.7146 16.1277C15.6556 16.1858 15.5967 16.2444 15.5361 16.3008C15.4835 16.35 15.4293 16.396 15.3754 16.4451C15.3139 16.4996 15.2527 16.5542 15.1899 16.6068C15.1344 16.6531 15.078 16.6978 15.0216 16.7428C14.9582 16.7935 14.8948 16.8442 14.8295 16.8931C14.7718 16.9365 14.7131 16.9787 14.6541 17.0199C14.5885 17.0668 14.5226 17.115 14.4557 17.1587C14.3958 17.1993 14.3352 17.2386 14.2743 17.2773C14.2065 17.3211 14.1381 17.3633 14.0692 17.4041C14.0058 17.4412 13.9452 17.4774 13.8828 17.5132C13.8126 17.5531 13.742 17.5921 13.671 17.6302C13.6076 17.664 13.5442 17.6971 13.4808 17.7294C13.4085 17.7659 13.3356 17.801 13.2624 17.8356C13.199 17.8657 13.133 17.8958 13.0677 17.9244C12.9932 17.9561 12.9177 17.9878 12.8423 18.0195C12.7767 18.0461 12.7114 18.0727 12.6454 18.0978C12.5681 18.1273 12.4904 18.1549 12.4124 18.1818C12.3465 18.2049 12.2805 18.2281 12.2136 18.2496C12.1344 18.2753 12.0551 18.2988 11.9743 18.3219C11.908 18.3416 11.8414 18.3612 11.7745 18.3793C11.7489 18.386 11.7232 18.3914 11.6975 18.398C12.6359 17.4868 13.3323 16.356 13.7236 15.1079C14.4761 15.3063 15.2046 15.5867 15.8959 15.9439C15.8855 15.9553 15.8766 15.9664 15.8674 15.9759ZM16.3233 15.4655C15.5618 15.0529 14.7542 14.7315 13.9174 14.508C14.3276 13.0815 14.5429 11.6061 14.5574 10.1219H18.3586C18.2896 12.0791 17.5738 13.9583 16.3233 15.4655Z" fill="white"/>
</svg>
