<svg width="592" height="321" viewBox="0 0 592 321" fill="none" xmlns="http://www.w3.org/2000/svg">
<path d="M521.891 247.227C521.891 122.47 420.756 21.3352 296 21.3352C171.243 21.3352 70.1084 122.47 70.1084 247.227" stroke="#A7CEFC" stroke-width="2" stroke-dasharray="15 15"/>
<line x1="68.8838" y1="245.727" x2="521.891" y2="245.727" stroke="#A7CEFC" stroke-width="3" stroke-dasharray="15 15"/>
<line x1="161.316" y1="65.1492" x2="256.203" y2="197.378" stroke="#A7CEFC" stroke-width="3" stroke-dasharray="15 15"/>
<line x1="448.058" y1="79.8817" x2="354.108" y2="198.572" stroke="#A7CEFC" stroke-width="3" stroke-dasharray="15 15"/>
<rect x="254.648" y="197.304" width="99.8449" height="99.8449" rx="8.5" stroke="#A7CEFC" stroke-width="3" stroke-dasharray="15 15"/>
<g filter="url(#filter0_d_9_19038)">
<rect x="273.962" y="216.618" width="61.2172" height="61.2172" rx="10" fill="white"/>
</g>
<path d="M287 236.13V242.362C287 244.26 289.371 245.273 290.819 243.944L297.734 237.712C299.248 236.351 298.261 233.947 296.186 233.947H289.272C288.021 233.947 287 234.928 287 236.13Z" fill="#5986EF"/>
<path d="M319.728 233.947H312.814C310.772 233.947 309.752 236.351 311.266 237.712L318.181 243.944C319.629 245.241 322 244.26 322 242.362V236.13C322 234.928 320.979 233.947 319.728 233.947Z" fill="#5986EF"/>
<path d="M306.064 249.164L318.181 260.11C319.629 261.408 322 260.427 322 258.529V252.233C322 251.632 321.737 251.062 321.276 250.651L306.064 236.889C305.175 236.098 303.825 236.098 302.936 236.889L287.724 250.651C287.263 251.062 287 251.632 287 252.233V258.529C287 260.427 289.371 261.439 290.819 260.11L302.936 249.164C303.825 248.373 305.175 248.373 306.064 249.164Z" fill="#5986EF"/>
<g filter="url(#filter1_d_9_19038)">
<rect x="39.5" y="216.618" width="61.2172" height="61.2172" rx="10" fill="white"/>
</g>
<path d="M68.7365 249.583C68.4427 249.583 68.1489 249.471 67.925 249.247C67.4768 248.799 67.4768 248.072 67.925 247.624L75.3635 240.186C75.8111 239.737 76.5389 239.737 76.9865 240.186C77.4347 240.634 77.4347 241.36 76.9865 241.809L69.5481 249.247C69.3242 249.471 69.0304 249.583 68.7365 249.583Z" fill="#FFE492"/>
<path d="M68.7365 249.584C68.4426 249.584 68.1494 249.472 67.925 249.247L64.175 245.498C63.7268 245.05 63.7268 244.323 64.175 243.875C64.6227 243.427 65.3498 243.427 65.7981 243.875L69.548 247.624C69.9962 248.073 69.9962 248.799 69.548 249.247C69.3242 249.472 69.0303 249.584 68.7365 249.584Z" fill="#FFE492"/>
<path d="M70.1075 261.536C69.9881 261.536 69.867 261.517 69.7476 261.478C62.4108 259.058 57.4814 252.241 57.4814 244.514C57.4814 243.881 57.9957 243.366 58.6293 243.366C59.2629 243.366 59.7771 243.881 59.7771 244.514C59.7771 251.247 64.0728 257.189 70.4668 259.298C71.0688 259.496 71.3959 260.145 71.1973 260.747C71.0384 261.23 70.5896 261.536 70.1075 261.536Z" fill="#FFE492"/>
<path d="M58.6293 245.662C57.9957 245.662 57.4814 245.148 57.4814 244.514V236.394C57.4814 235.761 57.9957 235.246 58.6293 235.246C59.2629 235.246 59.7771 235.761 59.7771 236.394V244.514C59.7771 245.149 59.2629 245.662 58.6293 245.662Z" fill="#FFE492"/>
<path d="M58.6283 237.542C58.0647 237.542 57.5729 237.127 57.4925 236.552C57.4053 235.924 57.8432 235.345 58.4716 235.257C62.3489 234.718 66.0914 233.56 69.5957 231.813C70.1633 231.531 70.8526 231.761 71.135 232.329C71.4179 232.896 71.1866 233.585 70.6196 233.868C66.892 235.725 62.9114 236.957 58.7873 237.531C58.7339 237.539 58.6805 237.542 58.6283 237.542Z" fill="#FFE492"/>
<path d="M70.1079 261.536C69.6264 261.536 69.177 261.23 69.018 260.747C68.8195 260.145 69.1466 259.496 69.7486 259.298C76.1426 257.189 80.4383 251.248 80.4383 244.514C80.4383 243.881 80.9525 243.366 81.5861 243.366C82.2197 243.366 82.7339 243.881 82.7339 244.514C82.7339 252.24 77.8046 259.058 70.4672 261.478C70.3478 261.518 70.2273 261.536 70.1079 261.536Z" fill="#FFE492"/>
<path d="M81.5863 245.662C80.9527 245.662 80.4385 245.148 80.4385 244.514V236.394C80.4385 235.761 80.9527 235.246 81.5863 235.246C82.2199 235.246 82.7341 235.761 82.7341 236.394V244.514C82.7341 245.149 82.2199 245.662 81.5863 245.662Z" fill="#FFE492"/>
<path d="M81.588 237.542C81.5352 237.542 81.4818 237.539 81.4284 237.531C77.3043 236.957 73.3237 235.725 69.5961 233.868C69.0291 233.585 68.7978 232.896 69.0807 232.329C69.3631 231.761 70.0524 231.531 70.62 231.813C74.1243 233.559 77.8667 234.718 81.7441 235.257C82.3719 235.345 82.8104 235.925 82.7232 236.552C82.644 237.127 82.1521 237.542 81.588 237.542Z" fill="#FFE492"/>
<g filter="url(#filter2_d_9_19038)">
<rect x="491.283" y="216.618" width="61.2172" height="61.2172" rx="10" fill="white"/>
</g>
<g clip-path="url(#clip0_9_19038)">
<path d="M532.221 242.348H529.636V236.449C529.636 232.265 526.161 228.861 521.888 228.861C517.616 228.861 514.141 232.265 514.141 236.449V242.348H511.561C509.187 242.348 507.256 244.279 507.256 246.653V261.287C507.256 263.661 509.187 265.592 511.561 265.592H532.221C534.595 265.592 536.526 263.661 536.526 261.287V246.653C536.526 244.279 534.595 242.348 532.221 242.348ZM517.01 236.449C517.01 233.847 519.199 231.731 521.888 231.731C524.578 231.731 526.767 233.847 526.767 236.449V242.348H517.01V236.449ZM533.656 261.287C533.656 262.078 533.013 262.722 532.221 262.722H511.561C510.77 262.722 510.126 262.078 510.126 261.287V246.653C510.126 245.861 510.77 245.218 511.561 245.218H532.221C533.013 245.218 533.656 245.861 533.656 246.653V261.287Z" fill="#4F9CF9"/>
<path d="M521.891 249.378C520.425 249.378 519.237 250.567 519.237 252.033C519.237 252.969 519.722 253.791 520.454 254.264V257.413C520.454 258.206 521.096 258.848 521.889 258.848C522.681 258.848 523.323 258.206 523.323 257.413V254.267C524.058 253.795 524.545 252.971 524.545 252.033C524.545 250.567 523.357 249.378 521.891 249.378Z" fill="#4F9CF9"/>
</g>
<g filter="url(#filter3_d_9_19038)">
<rect x="415.986" y="35.415" width="61.2172" height="61.2172" rx="10" fill="white"/>
</g>
<g clip-path="url(#clip1_9_19038)">
<path d="M440.791 47.6587C433.389 47.6587 428.229 50.2294 428.229 52.5367C428.229 54.8439 433.389 57.4147 440.791 57.4147C448.194 57.4147 453.353 54.8439 453.353 52.5367C453.353 50.2295 448.195 47.6587 440.791 47.6587Z" fill="#FFE492"/>
<path d="M428.229 74.9485V79.5109C428.229 81.8181 433.389 84.3889 440.791 84.3889C444.109 84.3889 447.241 83.8663 449.61 82.9173C451.154 82.2989 452.296 81.5318 452.891 80.7346C451.771 79.8581 450.477 78.5978 449.35 76.859C446.87 77.6533 443.938 78.07 440.792 78.07C436.833 78.07 433.13 77.3881 430.364 76.1497C429.558 75.7885 428.844 75.386 428.229 74.9485V74.9485Z" fill="#FFE492"/>
<path d="M428.23 65.9778L428.229 70.478C428.229 72.7851 433.389 75.3559 440.791 75.3559C443.417 75.3559 445.936 75.0266 448.047 74.4174C447.281 72.6481 446.786 70.695 446.568 68.5814C444.763 68.9209 442.796 69.0981 440.791 69.0981C436.807 69.0981 433.087 68.4084 430.315 67.1561C429.528 66.8005 428.831 66.4058 428.23 65.9778Z" fill="#FFE492"/>
<path d="M428.229 57.0032V61.5064C428.229 63.8136 433.389 66.3844 440.791 66.3844C442.771 66.3844 444.702 66.1978 446.439 65.8413C446.442 65.4148 446.569 64.305 447.596 64.0229C449.216 63.5784 450.349 62.5113 450.449 61.0476C450.49 60.445 451.244 59.6006 451.806 59.609H453.354V57.0032C452.752 57.4311 452.055 57.826 451.268 58.1819C448.493 59.4373 444.772 60.1288 440.792 60.1288C436.811 60.1288 433.09 59.4373 430.315 58.1819C429.528 57.826 428.831 57.4311 428.229 57.0032V57.0032Z" fill="#FFE492"/>
<path d="M461.112 62.3232H453.015C452.562 64.2055 451.115 65.7497 449.157 66.423C449.309 75.4581 454.503 78.9033 456.793 79.9835C456.923 80.0452 457.079 80.0386 457.208 79.966C459.506 78.6707 464.718 74.8152 464.96 66.4199C463.007 65.745 461.564 64.2027 461.112 62.3232ZM456.578 74.0893C456.029 74.6544 455.083 74.6234 454.572 74.0235L451.992 70.9961L454.058 69.2358L455.671 71.1286L460.171 66.5003L462.117 68.392L456.578 74.0893Z" fill="#FFE492"/>
</g>
<g filter="url(#filter4_d_9_19038)">
<rect x="129.489" y="35.415" width="61.2172" height="61.2172" rx="10" fill="white"/>
</g>
<g clip-path="url(#clip2_9_19038)">
<path d="M173.776 51.1208C169.16 46.5049 161.65 46.505 157.034 51.1208C153.881 54.2735 152.786 58.9206 154.151 63.1359L140.823 76.4638C140.621 76.6656 140.508 76.9394 140.508 77.2248V83.313C140.508 83.9074 140.99 84.3892 141.584 84.3892H147.672C147.958 84.3892 148.231 84.2758 148.433 84.0739L149.956 82.5516C150.188 82.3191 150.302 81.993 150.264 81.6663L150.074 80.0319L152.339 79.8183C152.854 79.7698 153.261 79.3624 153.31 78.8479L153.524 76.5818L155.158 76.7718C155.463 76.8074 155.769 76.7107 155.998 76.5065C156.228 76.3023 156.359 76.0098 156.359 75.7027V73.6985H158.327C158.61 73.6985 158.882 73.5868 159.083 73.3877L161.757 70.7446C165.973 72.1113 170.623 71.0168 173.776 67.8632C178.392 63.2474 178.392 55.7367 173.776 51.1208ZM172.254 66.3412C169.538 69.0576 165.463 69.9055 161.873 68.5016C161.477 68.3467 161.027 68.4395 160.725 68.7385L157.884 71.546H155.282C154.688 71.546 154.206 72.0279 154.206 72.6223V74.4942L152.68 74.3167C152.392 74.2834 152.103 74.3672 151.878 74.5492C151.653 74.7314 151.511 74.9965 151.484 75.2847L151.25 77.7589L148.776 77.9921C148.488 78.0193 148.223 78.1614 148.041 78.3864C147.859 78.6114 147.775 78.9004 147.808 79.1879L148.065 81.3977L147.226 82.2369H142.66V77.6707L156.154 64.1769C156.456 63.8746 156.551 63.422 156.395 63.0238C154.991 59.4341 155.839 55.3595 158.556 52.643C162.333 48.8664 168.478 48.8664 172.254 52.643C176.031 56.4195 176.031 62.5646 172.254 66.3412Z" fill="#4F9CF9"/>
<path d="M170.733 54.1644C169.474 52.9055 167.426 52.9055 166.167 54.1644C164.908 55.4233 164.908 57.4716 166.167 58.7305C167.426 59.9894 169.474 59.9895 170.733 58.7305C171.992 57.4716 171.992 55.4233 170.733 54.1644ZM169.211 57.2085C168.791 57.6281 168.109 57.6282 167.689 57.2085C167.269 56.7889 167.269 56.1062 167.689 55.6865C168.11 55.2658 168.79 55.2658 169.211 55.6865C169.632 56.1072 169.632 56.7878 169.211 57.2085Z" fill="#4F9CF9"/>
</g>
<circle cx="297.836" cy="21.3353" r="9.79475" fill="#A7CEFC"/>
<circle cx="223.764" cy="154.789" r="9.79475" fill="#A7CEFC"/>
<circle cx="433.738" cy="247.227" r="9.79475" fill="#A7CEFC"/>
<defs>
<filter id="filter0_d_9_19038" x="234.962" y="181.618" width="139.217" height="139.217" filterUnits="userSpaceOnUse" color-interpolation-filters="sRGB">
<feFlood flood-opacity="0" result="BackgroundImageFix"/>
<feColorMatrix in="SourceAlpha" type="matrix" values="0 0 0 0 0 0 0 0 0 0 0 0 0 0 0 0 0 0 127 0" result="hardAlpha"/>
<feMorphology radius="11" operator="erode" in="SourceAlpha" result="effect1_dropShadow_9_19038"/>
<feOffset dy="4"/>
<feGaussianBlur stdDeviation="25"/>
<feComposite in2="hardAlpha" operator="out"/>
<feColorMatrix type="matrix" values="0 0 0 0 0 0 0 0 0 0 0 0 0 0 0 0 0 0 0.2 0"/>
<feBlend mode="normal" in2="BackgroundImageFix" result="effect1_dropShadow_9_19038"/>
<feBlend mode="normal" in="SourceGraphic" in2="effect1_dropShadow_9_19038" result="shape"/>
</filter>
<filter id="filter1_d_9_19038" x="0.5" y="181.618" width="139.217" height="139.217" filterUnits="userSpaceOnUse" color-interpolation-filters="sRGB">
<feFlood flood-opacity="0" result="BackgroundImageFix"/>
<feColorMatrix in="SourceAlpha" type="matrix" values="0 0 0 0 0 0 0 0 0 0 0 0 0 0 0 0 0 0 127 0" result="hardAlpha"/>
<feMorphology radius="11" operator="erode" in="SourceAlpha" result="effect1_dropShadow_9_19038"/>
<feOffset dy="4"/>
<feGaussianBlur stdDeviation="25"/>
<feComposite in2="hardAlpha" operator="out"/>
<feColorMatrix type="matrix" values="0 0 0 0 0 0 0 0 0 0 0 0 0 0 0 0 0 0 0.2 0"/>
<feBlend mode="normal" in2="BackgroundImageFix" result="effect1_dropShadow_9_19038"/>
<feBlend mode="normal" in="SourceGraphic" in2="effect1_dropShadow_9_19038" result="shape"/>
</filter>
<filter id="filter2_d_9_19038" x="452.283" y="181.618" width="139.217" height="139.217" filterUnits="userSpaceOnUse" color-interpolation-filters="sRGB">
<feFlood flood-opacity="0" result="BackgroundImageFix"/>
<feColorMatrix in="SourceAlpha" type="matrix" values="0 0 0 0 0 0 0 0 0 0 0 0 0 0 0 0 0 0 127 0" result="hardAlpha"/>
<feMorphology radius="11" operator="erode" in="SourceAlpha" result="effect1_dropShadow_9_19038"/>
<feOffset dy="4"/>
<feGaussianBlur stdDeviation="25"/>
<feComposite in2="hardAlpha" operator="out"/>
<feColorMatrix type="matrix" values="0 0 0 0 0 0 0 0 0 0 0 0 0 0 0 0 0 0 0.2 0"/>
<feBlend mode="normal" in2="BackgroundImageFix" result="effect1_dropShadow_9_19038"/>
<feBlend mode="normal" in="SourceGraphic" in2="effect1_dropShadow_9_19038" result="shape"/>
</filter>
<filter id="filter3_d_9_19038" x="376.986" y="0.415039" width="139.217" height="139.217" filterUnits="userSpaceOnUse" color-interpolation-filters="sRGB">
<feFlood flood-opacity="0" result="BackgroundImageFix"/>
<feColorMatrix in="SourceAlpha" type="matrix" values="0 0 0 0 0 0 0 0 0 0 0 0 0 0 0 0 0 0 127 0" result="hardAlpha"/>
<feMorphology radius="11" operator="erode" in="SourceAlpha" result="effect1_dropShadow_9_19038"/>
<feOffset dy="4"/>
<feGaussianBlur stdDeviation="25"/>
<feComposite in2="hardAlpha" operator="out"/>
<feColorMatrix type="matrix" values="0 0 0 0 0 0 0 0 0 0 0 0 0 0 0 0 0 0 0.2 0"/>
<feBlend mode="normal" in2="BackgroundImageFix" result="effect1_dropShadow_9_19038"/>
<feBlend mode="normal" in="SourceGraphic" in2="effect1_dropShadow_9_19038" result="shape"/>
</filter>
<filter id="filter4_d_9_19038" x="90.4893" y="0.415039" width="139.217" height="139.217" filterUnits="userSpaceOnUse" color-interpolation-filters="sRGB">
<feFlood flood-opacity="0" result="BackgroundImageFix"/>
<feColorMatrix in="SourceAlpha" type="matrix" values="0 0 0 0 0 0 0 0 0 0 0 0 0 0 0 0 0 0 127 0" result="hardAlpha"/>
<feMorphology radius="11" operator="erode" in="SourceAlpha" result="effect1_dropShadow_9_19038"/>
<feOffset dy="4"/>
<feGaussianBlur stdDeviation="25"/>
<feComposite in2="hardAlpha" operator="out"/>
<feColorMatrix type="matrix" values="0 0 0 0 0 0 0 0 0 0 0 0 0 0 0 0 0 0 0.2 0"/>
<feBlend mode="normal" in2="BackgroundImageFix" result="effect1_dropShadow_9_19038"/>
<feBlend mode="normal" in="SourceGraphic" in2="effect1_dropShadow_9_19038" result="shape"/>
</filter>
<clipPath id="clip0_9_19038">
<rect width="36.7303" height="36.7303" fill="white" transform="translate(503.526 228.861)"/>
</clipPath>
<clipPath id="clip1_9_19038">
<rect width="36.7303" height="36.7303" fill="white" transform="translate(428.229 47.6587)"/>
</clipPath>
<clipPath id="clip2_9_19038">
<rect width="36.7303" height="36.7303" fill="white" transform="translate(140.508 47.6587)"/>
</clipPath>
</defs>
</svg>
