<svg width="105" height="18" viewBox="0 0 105 18" fill="none" xmlns="http://www.w3.org/2000/svg">
<path d="M2.5058 10.2106C2.44316 10.2106 1.06497 10.2106 0.438515 10.2106C0.104408 10.2106 0 10.0853 0 9.77209C0 8.93682 0 8.08067 0 7.24541C0 6.9113 0.12529 6.80689 0.438515 6.80689H2.5058C2.5058 6.74425 2.5058 5.53311 2.5058 4.9693C2.5058 4.13404 2.65197 3.34053 3.06961 2.60967C3.50812 1.85793 4.13457 1.35677 4.92807 1.06443C5.45012 0.876495 5.97216 0.792969 6.53596 0.792969H8.58237C8.87471 0.792969 9 0.918259 9 1.2106V3.59111C9 3.88346 8.87471 4.00875 8.58237 4.00875C8.01856 4.00875 7.45476 4.00875 6.89095 4.02963C6.32715 4.02963 6.0348 4.30109 6.0348 4.88578C6.01392 5.51223 6.0348 6.1178 6.0348 6.76513H8.45708C8.79118 6.76513 8.91647 6.89042 8.91647 7.22452V9.75121C8.91647 10.0853 8.81207 10.1897 8.45708 10.1897C7.70534 10.1897 6.09745 10.1897 6.0348 10.1897V16.9971C6.0348 17.3521 5.93039 17.4774 5.55452 17.4774C4.67749 17.4774 3.82135 17.4774 2.94432 17.4774C2.63109 17.4774 2.5058 17.3521 2.5058 17.0389C2.5058 14.8463 2.5058 10.2732 2.5058 10.2106Z" fill="#F7F7EE"/>
<path d="M58 3.8637C57.3678 4.14102 56.6942 4.32483 55.9919 4.41408C56.7144 3.9827 57.2658 3.30483 57.5251 2.48777C56.8514 2.88939 56.1077 3.17308 55.3151 3.33139C54.6754 2.65033 53.7638 2.22852 52.7693 2.22852C50.8398 2.22852 49.2864 3.79464 49.2864 5.71458C49.2864 5.99083 49.3098 6.25645 49.3672 6.50933C46.4697 6.36802 43.9059 4.97933 42.1836 2.86389C41.8829 3.38558 41.7066 3.9827 41.7066 4.62552C41.7066 5.83252 42.3281 6.90245 43.2546 7.52189C42.6947 7.51127 42.1454 7.3487 41.68 7.09264C41.68 7.10327 41.68 7.11708 41.68 7.13089C41.68 8.82452 42.8881 10.2313 44.4722 10.5553C44.1886 10.6329 43.8794 10.6701 43.5585 10.6701C43.3354 10.6701 43.1101 10.6573 42.8987 10.6106C43.3503 11.9908 44.6316 13.0055 46.1553 13.0384C44.9695 13.966 43.4639 14.5248 41.8341 14.5248C41.5483 14.5248 41.2741 14.5121 41 14.477C42.5438 15.4726 44.3734 16.041 46.3465 16.041C52.7597 16.041 56.266 10.7285 56.266 6.12364C56.266 5.96958 56.2607 5.82083 56.2533 5.67314C56.9449 5.18227 57.5261 4.5692 58 3.8637Z" fill="#F7F7EE"/>
<path d="M104.996 16.6344V16.6338H105V11.1153C105 8.41558 104.425 6.33594 101.3 6.33594C99.7983 6.33594 98.7903 7.16855 98.3788 7.95789H98.3354V6.58798H95.373V16.6338H98.4577V11.6595C98.4577 10.3498 98.7034 9.08329 100.309 9.08329C101.891 9.08329 101.915 10.578 101.915 11.7435V16.6344H104.996Z" fill="#F7F7EE"/>
<path d="M90.2236 6.56055H93.358V16.4113H90.2236V6.56055Z" fill="#F7F7EE"/>
<path d="M91.791 1.63477C90.8023 1.63477 90 2.43333 90 3.41746C90 4.40159 90.8023 5.21685 91.791 5.21685C92.7798 5.21685 93.5821 4.40159 93.5821 3.41746C93.5815 2.43333 92.7792 1.63477 91.791 1.63477V1.63477Z" fill="#F7F7EE"/>
</svg>
